<svg xmlns="http://www.w3.org/2000/svg" viewBox="0 0 64 64" role="img" aria-labelledby="title">
  <title>Reader Archive</title>
  <rect width="64" height="64" rx="14" fill="#F7F8F5"/>
  <path d="M18 15h22c4.4 0 8 3.6 8 8v26.5c0 1.8-2.1 2.8-3.5 1.7L33.8 43c-1.1-.8-2.5-.8-3.6 0l-10.7 8.2c-1.4 1.1-3.5.1-3.5-1.7V17c0-1.1.9-2 2-2Z" fill="#147A6D"/>
  <path d="M27.5 15H40c4.4 0 8 3.6 8 8v26.5c0 1.8-2.1 2.8-3.5 1.7L33.8 43c-1.1-.8-2.5-.8-3.6 0l-2.7 2.1V15Z" fill="#0E6157"/>
  <path d="M27.5 15H40c4.4 0 8 3.6 8 8v3.5H35.5c-4.4 0-8-3.6-8-8V15Z" fill="#F3D58A"/>
  <path d="M26 25.5h14" stroke="#F7F8F5" stroke-width="4" stroke-linecap="round"/>
  <path d="M26 34h10" stroke="#F7F8F5" stroke-width="4" stroke-linecap="round" opacity=".86"/>
  <path d="M18 15h22c4.4 0 8 3.6 8 8v26.5c0 1.8-2.1 2.8-3.5 1.7L33.8 43c-1.1-.8-2.5-.8-3.6 0l-10.7 8.2c-1.4 1.1-3.5.1-3.5-1.7V17c0-1.1.9-2 2-2Z" fill="none" stroke="#202522" stroke-width="2.5" stroke-linejoin="round" opacity=".9"/>
</svg>
